HIERARCHY
ROOT Hips
{
  OFFSET 13.6774 106.653 -34.4427
  CHANNELS 6 Xposition Yposition Zposition Zrotation Xrotation Yrotation
  JOINT ToSpine
  {
    OFFSET -2.69724 7.43032 -0.144315
    CHANNELS 3 Zrotation Xrotation Yrotation
    JOINT Spine
    {
      OFFSET -0.0310711 10.7595 1.96963
      CHANNELS 3 Zrotation Xrotation Yrotation
      JOINT Spine1
      {
        OFFSET 19.9056 3.91189 0.764692
        CHANNELS 3 Zrotation Xrotation Yrotation
        JOINT Neck
        {
          OFFSET 25.9749 7.03908 -0.130764
          CHANNELS 3 Zrotation Xrotation Yrotation
          JOINT Head
          {
            OFFSET 9.52751 0.295786 -0.907742
            CHANNELS 3 Zrotation Xrotation Yrotation
            End Site
            {
              OFFSET 16.4037 0.713936 2.7358
            }
          }
        }
        JOINT LeftShoulder
        {
          OFFSET 17.7449 4.33886 11.7777
          CHANNELS 3 Zrotation Xrotation Yrotation
          JOINT LeftArm
          {
            OFFSET 0.911315 1.27913 9.80584
            CHANNELS 3 Zrotation Xrotation Yrotation
            JOINT LeftForeArm
            {
              OFFSET 28.6126 1.18197 -3.53199
              CHANNELS 3 Zrotation Xrotation Yrotation
              JOINT LeftHand
              {
                OFFSET 27.5088 0.0218783 0.327423
                CHANNELS 3 Zrotation Xrotation Yrotation
                End Site
                {
                  OFFSET 18.6038 -0.000155887 0.382096
                }
              }
            }
          }
        }
        JOINT RightShoulder
        {
          OFFSET 17.1009 2.89543 -12.2328
          CHANNELS 3 Zrotation Xrotation Yrotation
          JOINT RightArm
          {
            OFFSET 1.4228 0.178766 -10.211
            CHANNELS 3 Zrotation Xrotation Yrotation
            JOINT RightForeArm
            {
              OFFSET 28.733 1.87905 2.64907
              CHANNELS 3 Zrotation Xrotation Yrotation
              JOINT RightHand
              {
                OFFSET 27.4588 0.290562 -0.101845
                CHANNELS 3 Zrotation Xrotation Yrotation
                End Site
                {
                  OFFSET 17.8396 -0.255518 -0.000602873
                }
              }
            }
          }
        }
      }
    }
  }
  JOINT LeftUpLeg
  {
    OFFSET -5.61296 -2.22332 -10.2353
    CHANNELS 3 Zrotation Xrotation Yrotation
    JOINT LeftLeg
    {
      OFFSET 2.56703 -44.7417 -7.93097
      CHANNELS 3 Zrotation Xrotation Yrotation
      JOINT LeftFoot
      {
        OFFSET 3.16933 -46.5642 -3.96578
        CHANNELS 3 Zrotation Xrotation Yrotation
        JOINT LeftToeBase
        {
          OFFSET 0.346054 -6.02161 12.8035
          CHANNELS 3 Zrotation Xrotation Yrotation
          End Site
          {
            OFFSET 0.134235 -1.35082 5.13018
          }
        }
      }
    }
  }
  JOINT RightUpLeg
  {
    OFFSET -5.7928 -1.72406 10.6446
    CHANNELS 3 Zrotation Xrotation Yrotation
    JOINT RightLeg
    {
      OFFSET -2.57161 -44.7178 -7.85259
      CHANNELS 3 Zrotation Xrotation Yrotation
      JOINT RightFoot
      {
        OFFSET -3.10148 -46.5936 -4.03391
        CHANNELS 3 Zrotation Xrotation Yrotation
        JOINT RightToeBase
        {
          OFFSET -0.0828122 -6.13587 12.8035
          CHANNELS 3 Zrotation Xrotation Yrotation
          End Site
          {
            OFFSET -0.131328 -1.35082 5.13018
          }
        }
      }
    }
  }
}
MOTION
Frames: 17
Frame Time: 0.03333333333333333
0.0000 93.1000 0.0000 -68.9765 44.3800 170.2339 -70.8969 0.0430 88.0230 141.4897 56.7556 -60.3930 12.7819 22.0788 -11.3683 -138.1086 12.9232 160.8848 -140.1845 50.7246 168.8180 0.5680 -0.1180 -7.2536 -115.2237 27.0776 -49.9057 -9.8507 59.1816 13.7206 5.4099 -0.2975 3.7752 -0.3599 0.4832 -5.0244 -88.3939 -13.3673 69.0300 -4.2262 -11.9803 5.2534 -3.4633 -0.3481 -4.4568 -13.2821 17.8383 91.7820 -2.5927 38.1270 -10.2693 -2.1050 8.0347 0.0385 1.3123 22.3153 9.3031 -20.5591 -18.3828 78.7390 140.8311 83.1056 -134.2446 -5.8784 2.3191 0.3124 -5.7334 41.5945 -8.9508 
0.0000 93.1000 0.0000 -69.7694 46.0860 168.4357 -70.9113 0.1496 88.0129 142.5470 55.0600 -62.2920 14.7564 22.4267 -13.6909 -139.2842 12.7133 164.0121 -140.4236 50.3239 168.9647 0.6897 0.1846 -8.9769 -117.3079 33.2205 -45.7516 -13.8155 63.9453 16.4706 6.6321 -0.3842 3.9328 0.0393 1.4987 -2.7195 -83.4284 -19.8628 64.2441 -4.8206 -15.8860 5.2479 -3.2405 0.0472 -3.8329 -17.3075 18.0250 95.1082 -3.4861 30.1620 -3.3671 -1.1383 7.3729 0.0150 2.2282 21.5435 5.1303 -14.2992 -20.9810 75.0670 60.9910 85.0807 -51.2653 -5.9802 -0.4458 0.1143 -6.1150 34.5845 -5.9388 
0.0000 93.1000 0.0000 -70.6930 48.2119 169.5896 -70.9159 0.2555 88.1421 142.7054 54.7193 -62.3010 17.0251 22.7598 -15.3214 -138.9111 12.2196 166.2298 -139.9802 49.6613 168.8568 1.1527 0.1040 -10.9338 -114.9919 34.7264 -40.7008 -14.2109 59.1057 13.9155 6.2871 -0.2731 3.4866 0.3299 2.2985 -1.8301 -83.1982 -24.1273 58.2915 -4.8783 -20.0088 5.2559 -2.5518 -0.3760 -3.9512 -20.3634 18.9172 95.8054 -4.5492 28.0011 0.3598 -1.4270 7.9094 -0.0386 2.9079 23.4076 4.6929 -11.3058 -20.5180 70.7756 15.0851 77.1747 -3.4755 -5.9559 -2.5008 0.0473 -7.4748 31.1882 -6.1255 
0.0000 93.1000 0.0000 -71.6045 50.1490 169.6437 -70.8909 0.2554 88.2386 142.5447 56.0750 -60.5433 19.2940 21.9786 -15.0510 -141.5935 12.8360 168.2045 -141.4671 50.2673 171.4741 1.0273 -0.6589 -11.9707 -113.2604 36.0621 -35.8573 -13.1766 51.5690 10.5822 7.2662 -0.5284 3.9522 0.0767 1.4856 -0.2437 -84.5036 -26.3696 50.9010 -5.0595 -19.8491 5.2649 -1.9929 -0.0688 -3.7119 -23.2380 19.0982 96.9865 -5.5613 31.1077 -3.3061 -3.0391 8.1827 0.3917 3.6673 24.5523 4.5001 -11.6735 -18.4616 64.7983 5.7874 64.3044 7.3802 -6.0872 -3.9542 -0.0307 -8.3481 28.2618 -1.7468 
0.0000 93.1000 0.0000 -74.5225 50.0044 174.1788 -70.8264 0.0791 88.2147 141.5092 56.7568 -58.4876 21.1379 20.6210 -13.5428 -139.6001 12.6880 169.2581 -140.1061 50.2969 170.9047 0.8970 -0.7121 -14.0625 -112.1499 35.2782 -34.7139 -11.7872 43.0516 9.9943 9.1808 -0.7785 4.6184 -0.1567 0.2321 1.2963 -86.1362 -28.1073 42.0617 -5.1269 -18.2526 5.0104 -1.5075 0.0438 -3.2675 -26.2179 18.2924 100.7573 -2.5434 38.1237 -12.5921 -3.5418 10.7820 1.0813 4.1143 23.6157 3.5804 -15.2999 -16.1124 59.9562 2.9525 49.8898 11.7019 -3.2728 -2.7013 -0.4739 -11.9054 26.5263 6.7455 
0.0000 93.1000 0.0000 -78.5476 49.1953 178.0720 -70.6736 0.6064 88.3042 139.5369 57.7328 -54.5732 24.0219 19.0468 -12.0859 -138.7178 11.7417 170.1979 -140.4980 49.3612 172.8586 1.0606 -0.4016 -17.3552 -114.2102 34.6594 -36.7237 -9.3170 34.4537 8.5477 11.9939 -0.1221 6.1131 0.1875 -1.6286 5.7695 -92.2114 -28.3632 33.8412 -4.6012 -14.1345 4.2957 -1.0674 0.4547 -2.7195 -30.2721 15.8081 98.1832 -3.8413 49.0960 -12.1165 -2.4006 11.4064 0.3534 1.3300 20.8490 4.4286 -18.6223 -13.2362 59.9437 2.3680 39.8493 9.5479 -1.0168 2.2372 -0.3284 -15.8150 24.3703 12.1770 
0.0000 93.1000 0.0000 -83.9014 46.6727 -179.6353 -71.3666 0.3598 87.3163 135.6165 58.1496 -51.9617 25.2982 17.4056 -12.9686 -138.6941 11.9919 170.9697 -138.9638 48.3470 171.2372 2.4117 0.4996 -26.1578 -113.2713 34.3006 -47.3737 -7.8835 31.4225 7.7745 14.9225 -1.0473 5.0179 0.3073 -4.2928 12.4218 -99.8964 -28.1579 28.2117 -1.6741 -8.1443 1.1365 -0.5755 0.3778 -3.2248 -36.3811 11.1314 94.7311 -7.4810 62.4493 -11.9965 6.3170 13.7057 -0.9878 -7.1529 -26.9474 10.8723 -19.2252 -13.0982 62.0516 2.1584 40.1478 6.2252 0.0890 6.2943 -1.2090 -15.8209 22.2794 12.8097 
0.0000 93.1000 0.0000 -84.6107 43.2616 178.5043 -71.1163 0.6086 88.2713 129.6222 58.7775 -47.3746 26.6028 15.8426 -12.4615 -139.5170 12.7625 170.5335 -140.4667 49.4730 174.2258 3.1769 0.9554 -31.7885 -110.2490 35.2956 -67.8196 -7.8516 28.3029 7.8997 11.7296 0.2541 3.5335 0.4941 -5.8812 21.9084 -106.9846 -32.3683 27.2069 -0.2176 0.2022 0.9892 -1.5724 -1.1791 -3.5634 -38.2136 3.7112 89.9791 -13.2004 74.2996 -0.0082 12.3142 13.0071 -2.7279 -14.5530 -52.2048 3.6427 -15.2969 -17.2750 65.3259 1.8050 49.9790 2.3652 0.2437 6.3492 -0.7706 -19.4326 20.8169 20.3967 
0.0000 93.1000 0.0000 -82.4936 36.7689 176.3989 -71.0712 0.3231 88.5840 127.5763 57.5104 -44.4258 25.5352 13.8258 -9.7874 -142.5403 13.5279 169.8947 -140.8121 50.5438 173.6471 2.9684 1.0917 -33.2385 -105.2236 40.6786 -86.7516 -7.4172 18.5479 5.6012 8.5853 -0.3451 2.3856 1.4809 -6.7941 29.2611 -115.1269 -40.8238 33.9982 -1.2153 6.5299 2.1078 -4.7135 0.0220 -1.3666 -35.7149 -1.9160 86.5133 -62.0492 85.4035 57.0342 16.3948 15.7714 -3.2429 -21.6362 -66.3359 -4.7792 -9.7864 -20.6822 67.6456 4.7709 63.9384 -1.5297 -1.4620 5.9129 -0.8451 -20.6739 20.9557 27.0980 
0.0000 93.1000 0.0000 -82.9097 35.9591 -180.4904 -70.8107 0.2928 87.4336 132.5678 56.5955 -46.0394 25.0065 14.1040 -7.1879 -145.3186 14.9297 172.0864 -144.2863 52.6748 176.2617 3.0897 0.2273 -34.0402 -97.3253 43.5841 -103.4642 -3.9328 12.8827 -9.1315 12.3359 -1.0478 0.4472 1.3208 -6.0322 30.8356 -107.5944 -49.6547 53.3103 -4.7609 7.6591 7.7586 -5.1067 -0.4397 0.0840 -31.9623 0.1368 82.0211 -159.7368 73.8819 145.6678 9.4672 7.2740 -2.3202 -14.5475 -54.0789 5.7728 -9.8926 -14.8281 69.2271 9.5404 73.3393 -2.4586 -5.0970 -4.5309 -0.5112 -1.8968 31.3378 -17.5740 
0.0000 93.1000 0.0000 -82.6772 39.7563 -181.0870 -70.7519 0.3672 87.7505 139.5730 55.4974 -51.2748 23.8991 16.7600 -6.6373 -147.4663 14.5957 172.7106 -145.5559 52.1675 177.5953 1.7603 -3.0166 -32.0158 -99.2952 46.3169 -114.4743 -0.7051 21.5815 -8.2338 20.2787 -0.8249 -1.1648 -0.5731 -1.8374 32.1786 -67.1152 -50.9171 98.9939 -8.3208 20.0995 21.4023 -2.1521 -2.0816 1.7049 -25.4314 2.5731 78.4085 -167.5595 58.9273 149.1074 5.9664 2.1033 -1.4471 -8.9277 -33.2019 13.0409 -6.6429 -9.1182 73.4077 52.7580 84.8254 -47.6866 -6.3059 -1.1427 0.3412 5.6606 7.0657 -22.0170 
0.0000 93.1000 0.0000 -86.5584 45.1496 -176.9425 -71.0136 0.7713 87.8866 145.7006 52.9009 -57.1441 24.0101 18.1661 -7.8375 -150.6250 15.6314 174.7104 -141.8118 51.6375 169.7456 1.0550 -5.6269 -29.8177 -100.4476 48.1293 -120.5437 -0.0095 28.3048 -4.3111 29.4924 -0.8215 -0.8834 -0.8402 1.0750 30.0053 -70.1222 -40.7296 109.5368 -12.0372 21.5186 33.8218 -0.7016 -1.0155 5.1588 -21.1248 2.8389 76.9403 -169.0123 56.0790 155.8104 6.3248 2.9304 -1.6102 -9.0461 -36.0699 14.4261 -7.6538 -6.0290 75.5874 144.4796 80.9326 -136.6190 -6.1446 -1.1107 0.5647 7.5740 0.0306 -19.7671 
0.0000 93.1000 0.0000 -89.7976 48.8864 -174.1049 -70.9112 0.6534 87.9082 150.7808 50.2926 -60.0057 23.0861 19.2361 -8.9542 -151.5558 16.0526 176.4214 -140.4445 51.4921 166.8882 1.2391 -5.9421 -29.7466 -98.1404 44.2562 -123.4192 -3.7355 33.5440 0.8678 32.3786 -0.6575 -0.5425 -0.1791 1.0867 24.3835 -85.2550 -43.1085 114.3975 -12.6403 17.8326 39.0930 0.9767 -0.9664 5.7642 -16.2423 2.0288 74.9219 -167.9804 60.0116 157.4356 6.8894 3.9434 -1.9330 -8.2170 -37.8652 13.9640 -12.2318 -3.5394 74.2232 156.7553 76.2141 -146.2242 -7.8945 -2.7355 1.2121 7.1619 -7.8264 -17.7695 
0.0000 93.1000 0.0000 -88.7604 53.0624 -176.0932 -70.8902 -0.1756 87.7120 150.6032 50.8630 -61.5002 21.3595 19.6960 -9.5834 -148.5097 15.6708 174.5446 -139.1641 51.2251 167.8071 1.3202 -5.7901 -30.2457 -99.2027 40.2094 -120.2455 -7.0839 37.2519 5.0876 27.1533 -1.3286 -0.1401 -0.4752 0.1575 22.9084 -94.4002 -47.1063 114.5417 -13.6123 14.7165 46.2169 3.1937 -0.6899 5.5179 -9.4575 -1.0457 73.6114 -163.0851 70.1893 150.9485 6.4241 3.4182 -1.2534 -8.6639 -37.5497 13.3881 -15.1585 -4.2635 76.4530 159.7686 73.5161 -144.7129 -8.0210 -6.8343 0.6595 8.7548 -14.7331 -18.6075 
0.0000 93.1000 0.0000 -84.9967 54.2908 174.7433 -70.6804 0.2967 87.9655 146.5874 53.8347 -63.4197 20.3107 20.0719 -9.9720 -150.3908 14.3414 172.2903 -136.9614 49.8158 164.5718 1.2798 -6.2256 -31.9800 -102.4944 40.2054 -116.4993 -8.8088 34.2496 8.8766 23.5702 -0.7498 1.6866 0.5737 0.0903 23.3058 -95.3904 -49.2506 115.6329 -11.1208 9.3525 51.3006 4.7027 -0.3580 5.8993 -5.4062 -4.2082 76.6665 -102.5196 84.6586 88.3512 5.2737 5.1570 -1.3830 -8.8703 -38.1621 14.5651 -17.2762 -5.9427 80.5588 161.4395 71.0938 -144.0603 -8.9424 -5.1681 0.8380 12.7919 -33.7531 -16.8033 
0.0000 93.1000 0.0000 -80.9721 54.8376 168.9858 -71.0250 0.2695 87.6689 143.6148 56.8791 -64.0129 19.0066 21.1260 -8.9934 -151.5686 14.5986 174.2472 -139.3402 49.5200 164.1373 2.4381 -5.0602 -34.8566 -103.0279 38.1952 -113.5658 -7.9384 27.7108 8.1608 20.4679 -0.0993 3.6305 0.4666 -1.0426 23.3792 -92.3794 -47.5326 114.4644 -9.4432 7.1271 56.2080 2.7299 -0.6876 6.3823 -3.6797 -5.0136 76.7016 -16.9723 76.0083 -1.2226 1.9161 13.9703 -0.0170 -6.8410 -24.3971 20.9853 -18.1059 -6.7057 84.4025 163.7408 68.2853 -148.7580 -10.1250 -9.0097 1.1228 13.9511 -35.8195 -13.8848 
0.0000 93.1000 0.0000 -80.8730 57.2755 169.9291 -70.9933 0.1128 87.7118 143.5088 57.9029 -64.1310 17.6202 20.9877 -8.5335 -152.3816 12.7818 174.3359 -137.7518 48.2401 164.5130 2.5058 -4.6741 -35.0729 -104.3993 38.3486 -106.4897 -7.0035 22.0536 7.9070 18.4286 -0.2639 4.0057 0.0657 -0.6017 26.0443 -87.4602 -46.3898 114.5976 -5.3606 3.9481 55.3050 1.1337 -0.7700 6.3048 -2.6602 -2.9536 76.8236 -18.9714 76.9571 1.7279 2.0975 14.8105 0.1505 -5.7293 -20.0424 16.4295 -23.2293 -6.0527 86.4967 164.8949 65.2379 -148.4189 -10.0589 -10.0042 1.0011 13.8889 -35.7124 -13.7200 
